<svg xmlns="http://www.w3.org/2000/svg" xmlns:svg="http://www.w3.org/2000/svg" id="svg8" width="498.929" height="498.916" version="1.1" viewBox="0 0 132.008 132.005"><defs id="defs2"><clipPath id="clipPath4561" clipPathUnits="userSpaceOnUse"><path style="clip-rule:evenodd" id="path4559" d="M 538.56,67.551 H 56.64 v 706.8 h 481.92 z"/></clipPath><clipPath id="clipPath4567" clipPathUnits="userSpaceOnUse"><path id="path4565" d="M 0,842.04 H 595.2 V 0 H 0 Z"/></clipPath></defs><metadata id="metadata5"/><g id="layer1" transform="translate(-35.28718,-82.191593)"><g id="g4493" transform="matrix(0,0.35277777,0.35277777,0,-47.246869,42.313594)"><g id="g4497" transform="rotate(23.212322,-782.08762,488.63074)" style="fill:#00f"><path id="path4499" d="m 0,0 c 0,102.72 83.16,185.88 185.88,185.88 32.52,0 64.44,-8.52 92.64,-24.72 L 185.88,0" style="fill:#00f;fill-opacity:1;fill-rule:evenodd;stroke:none"/></g><g id="g4505" transform="rotate(23.212322,-1313.6886,1086.1024)" style="fill:#71c837"><path id="path4507" d="M 0,0 C 89.04,-51.24 119.64,-164.88 68.4,-253.92 52.08,-282.24 28.68,-305.64 0.36,-322.08 l -93,160.92" style="fill:#71c837;fill-opacity:1;fill-rule:evenodd;stroke:none"/></g><g id="g4513" transform="rotate(23.212322,-529.77094,1248.0188)"><path id="path4515" d="m 0,0 c -88.8,-51.36 -202.56,-21 -253.92,67.92 -16.32,28.2 -24.96,60.36 -24.96,93 H -93" style="fill:red;fill-opacity:1;fill-rule:evenodd;stroke:none"/></g></g></g></svg>